# xmcd
#
# Track frame offsets:
# 150
# 21535
# 42110
# 66882
# 91015
# 116780
# 136155
# 161167
#
# Disc length: 2404 seconds
# Revision: 2
# Processed by: cddbd v1.5.1PL0 Copyright (c) Steve Scherf et al.
# Submitted via: MusicBin 0.4
#
DISCID=68096208
DTITLE=Art Farmer - Art
DYEAR=1960
DGENRE=Jazz
TTITLE0=So Beats My Heart for You
TTITLE1=Goodbye, Old Girl
TTITLE2=Who Cares
TTITLE3=Out of the Past
TTITLE4=Younger Than Springtime
TTITLE5=The Best Thing for You is Me
TTITLE6=I'm a Fool to Want You
TTITLE7=That Old Devil Called Love
EXTD=Art Farmer (tp]\nTommy Flanagan (p]\nTommy Williams (b]\nAlbe
EXTD=rt Heath (ds]\n\nRecorded September 21, 22 and 23, 1960, Nola P
EXTD=enthouse Studios, New York
EXTT0=Ballard-Henderson-Waring
EXTT1=Adler-Ross
EXTT2=George and Ira Gershwin
EXTT3=Benny Golson
EXTT4=Rodgers-Hammerstein
EXTT5=Irving Berlin
EXTT6=Herron-Sinatra-Wolf
EXTT7=Roberts-Fisher
PLAYORDER=
